<svg width="116" height="116" viewBox="0 0 116 116" fill="none" xmlns="http://www.w3.org/2000/svg">
<g id="ems-1 1" clip-path="url(#clip0_67_73)">
<g id="Group">
<path id="Vector" fill-rule="evenodd" clip-rule="evenodd" d="M42.9214 46.8168H16.1077L15.152 45.7143H12.0829L12.7081 43.3252H43.8217L42.9214 46.8168ZM60.5089 50.8783V50.9151H53.9848C53.6171 52.1463 53.3048 53.3963 52.9924 54.6275L59.5352 54.6462L57.7894 61.3725V61.4092H51.2647C50.9156 62.6585 50.6033 63.9078 50.2723 65.1584L56.8331 65.1758L55.0873 71.9755V72.0128H40.4955L41.3404 68.7415L54.3158 68.7228L54.6462 67.565L41.6347 67.5463C41.9657 66.2783 42.2967 64.9923 42.6271 63.7062H48.8942L49.2065 62.5472L42.94 62.5297L43.9137 58.7805H56.8885C57.0173 58.3948 57.0907 57.9717 57.2014 57.5679L44.2261 57.5499C44.5197 56.2999 44.8874 55.0687 45.1817 53.8193H51.4482L51.7425 52.6982L45.4754 52.6801L46.431 48.949H59.4064C59.5346 48.5452 59.6086 48.1408 59.7193 47.7364L46.744 47.7177L47.6996 44.0058H62.2914L60.5089 50.8783ZM76.1111 55.2341L76.1297 55.2528L76.9018 53.8193H87.6529L87.9466 52.6801L77.5632 52.6428L79.6027 48.9676L88.9209 48.9303C89.0305 48.5265 89.1231 48.1221 89.2146 47.7177L80.3194 47.6991L82.3776 44.0052H91.3281L84.1421 71.9942H77.2509C77.5446 70.9104 77.8021 69.8067 78.0958 68.7042H83.8291L84.124 67.565L78.4081 67.5463L79.3084 63.7237L85.0971 63.7062C85.2265 63.3385 85.318 62.9341 85.41 62.5472L79.6942 62.5297L80.6324 58.7805H86.3849C86.4957 58.3761 86.5872 57.9717 86.7153 57.5679L80.8526 57.5493C80.982 56.8879 81.1475 56.2259 81.2757 55.5826L72.9504 71.9749L70.3597 71.9936V68.7222H73.1713C73.3735 68.3365 73.557 67.9501 73.7593 67.5644L70.3603 67.5457V63.7056H75.7073C75.9095 63.3379 76.0942 62.9335 76.2964 62.5466L70.3609 62.5291V58.7799H78.2077C78.4099 58.3755 78.6308 57.9711 78.8143 57.5673L70.3609 57.5487C70.3609 56.85 70.3784 56.1519 70.3609 55.4719L66.0605 71.9936H59.1302L59.9751 68.7222H65.2312C65.3419 68.3545 65.4334 67.9688 65.5441 67.583L60.27 67.5644L61.2617 63.7056H66.5178C66.6093 63.3187 66.7014 62.9335 66.8115 62.5466L61.5741 62.5291C61.8858 61.2798 62.236 60.0293 62.5472 58.7619H67.7846C67.914 58.3749 67.9868 57.9525 68.0975 57.5667L62.8601 57.5481L63.8158 53.8175H74.5855L74.603 52.6783L64.1088 52.6597L65.0645 48.9658H74.3279V47.7346L65.3961 47.7159L66.3517 44.004H75.4491L76.1111 55.2341ZM110.882 47.6991L109.596 52.6428L102.465 52.6615C102.612 52.0916 102.759 51.5223 102.925 50.9524L100.609 50.9343C100.26 52.1475 99.9663 53.3969 99.6534 54.6281L104.744 54.6648L108.254 57.8809L105.497 68.7048L99.7641 71.9948H92.9271L88.5346 68.7048L88.5171 68.6873H103.991L104.304 67.5662L88.7927 67.5475L89.8038 63.7249L97.3016 63.7074L96.9525 65.1403L99.2315 65.159L99.6173 63.7074H105.26C105.37 63.3205 105.499 62.9528 105.591 62.5484L99.9302 62.5309C99.9856 62.1632 100.132 61.8142 100.188 61.4284L94.3991 61.4098C93.5716 60.527 92.69 59.6646 91.8451 58.7817L106.528 58.7643C106.638 58.3599 106.749 57.9549 106.877 57.5691L91.3853 57.5505C91.6922 56.3102 92.0108 55.0729 92.3409 53.8386L98.4787 53.8199C98.5894 53.4522 98.6622 53.0478 98.8103 52.6807L92.6346 52.6621C92.9283 51.4121 93.2966 50.1995 93.5903 48.9682L109.064 48.9496L109.377 47.7183L93.8846 47.6997L100.152 44.0058H106.951L110.882 47.6991ZM41.598 51.908H20.4996L19.1034 50.2904H10.907L11.4215 48.3057H42.535L41.598 51.908ZM40.33 56.8512H24.7633L22.9808 54.775H9.76716L10.1535 53.2494H41.267L40.33 56.8512ZM39.0981 61.5747H28.8435L26.73 59.1127H8.64661L8.90358 58.0831H40.0357L39.0981 61.5747ZM37.7934 66.4998H33.0886L30.5713 63.5775H7.50681L7.70901 62.6964L27.2999 62.6772H38.7858L37.7934 66.4998ZM36.691 70.7262L34.5034 68.1535L6.31224 68.1361L6.42237 67.6023L37.5178 67.6209L36.691 70.7262ZM36.1764 72.6562L5.11768 72.6754L5.2278 72.1783H36.3419L36.1764 72.6562Z" fill="white"/>
</g>
</g>
<defs>
<clipPath id="clip0_67_73">
<rect width="116" height="116" fill="white"/>
</clipPath>
</defs>
</svg>
