<svg width="56" height="47" viewBox="0 0 56 47" fill="none" xmlns="http://www.w3.org/2000/svg">
<path d="M5.39583 7.8335C2.42448 7.8335 0 9.86833 0 12.3621V36.5965C0 39.0903 2.42448 41.1252 5.39583 41.1252H50.6042C53.5755 41.1252 56 39.0903 56 36.5965V12.3621C56 9.86833 53.5755 7.8335 50.6042 7.8335H5.39583ZM5.39583 11.7502H50.6042C51.0508 11.7502 51.3333 11.9873 51.3333 12.3621V36.5965C51.3333 36.9714 51.0508 37.2085 50.6042 37.2085H5.39583C4.94922 37.2085 4.66667 36.9714 4.66667 36.5965V12.3621C4.66667 11.9873 4.94922 11.7502 5.39583 11.7502ZM22.1667 15.6668C16.3698 15.6668 11.6667 19.6141 11.6667 24.4793C11.6667 29.3446 16.3698 33.2918 22.1667 33.2918C24.3086 33.2918 26.3411 32.7487 28 31.8231C29.6589 32.7487 31.6914 33.2918 33.8333 33.2918C39.6302 33.2918 44.3333 29.3446 44.3333 24.4793C44.3333 19.6141 39.6302 15.6668 33.8333 15.6668C31.6914 15.6668 29.6589 16.21 28 17.1356C26.3411 16.21 24.3086 15.6668 22.1667 15.6668ZM33.8333 19.5835C37.0508 19.5835 39.6667 21.779 39.6667 24.4793C39.6667 27.1797 37.0508 29.3752 33.8333 29.3752C32.8854 29.3752 32.0013 29.161 31.2083 28.8244C32.0833 27.5392 32.6667 26.0705 32.6667 24.4793C32.6667 22.8882 32.0833 21.4194 31.2083 20.1343C32.0013 19.7977 32.8854 19.5835 33.8333 19.5835Z" fill="white"/>
</svg>
