<svg width="45" height="45" viewBox="0 0 45 45" fill="none" xmlns="http://www.w3.org/2000/svg">
<path d="M28.1277 2.66162L25.881 4.33154C25.881 4.33154 16.2405 11.5022 13.0325 13.8951C11.0301 15.3884 9.88064 16.4966 9.19556 17.6635C8.51048 18.8303 8.44025 19.9892 8.44025 20.9621L8.4375 35.0328C8.4375 37.4251 10.4273 39.3752 12.821 39.3752H36.5652V16.8752H30.9375H28.1277V2.66162ZM25.3152 8.25916V16.8752H25.3125L25.3152 18.1331V19.6877H25.318L25.3345 26.9469L11.8021 36.1864C11.4678 35.9073 11.2508 35.504 11.25 35.0356V35.0328L11.2527 20.9621C11.2527 20.0675 11.26 19.7007 11.6208 19.0862C11.9816 18.4716 12.8444 17.5439 14.7134 16.1501C17.3559 14.179 22.9396 10.0262 25.3152 8.25916ZM22.4231 16.8834C21.7765 16.9379 21.0463 17.3154 20.4785 17.9491C19.5687 18.963 19.4232 20.2483 20.1517 20.822C20.8801 21.3958 22.2054 21.0381 23.1152 20.0228C24.0251 19.0075 24.1705 17.7194 23.4421 17.1471C23.1689 16.9325 22.8111 16.8508 22.4231 16.8834ZM30.9375 19.6877H33.7527V36.5627H12.821C12.4993 36.5627 12.2242 36.4532 11.9806 36.3018L30.9375 29.5314V19.6877Z" fill="white"/>
</svg>
