<svg width="51" height="51" viewBox="0 0 51 51" fill="none" xmlns="http://www.w3.org/2000/svg">
<rect width="51" height="51" fill="#E5E5E5"/>
<g id="&#208;&#147;&#208;&#187;&#208;&#176;&#208;&#178;&#208;&#189;&#208;&#176;&#209;&#143;">
<rect width="1600" height="8478" transform="translate(-1124 -7951)" fill="white"/>
<g id="&#208;&#164;&#209;&#131;&#209;&#130;&#208;&#181;&#209;&#128;" clip-path="url(#clip0_0_1)">
<rect width="1600" height="625" transform="translate(-1124 -101)" fill="white"/>
<g id="&#208;&#164;&#209;&#131;&#209;&#130;&#208;&#181;&#209;&#128;_2">
<rect id="Rectangle 27" x="-1123" y="-101" width="1599" height="628" fill="url(#paint0_linear_0_1)"/>
<g id="Group 40">
<g id="Group 42">
<g id="symbols 1">
<g id="Group">
<g id="Group_2">
<path id="Vector" d="M49.6871 8.97461H1.31292C0.586933 8.97461 0 9.56245 0 10.2875V40.7133C0 41.4384 0.586933 42.0262 1.31292 42.0262H49.6871C50.4131 42.0262 51 41.4384 51 40.7133V10.2875C51 9.56245 50.4131 8.97461 49.6871 8.97461ZM3.94871 18.9624H9.39184C10.126 18.9904 10.7174 19.2243 10.9215 20.009L12.1053 25.7022C10.9422 22.7242 8.13941 20.2464 3.90356 19.2207L3.94871 18.9624ZM10.535 31.9472L7.39085 21.2054C9.65099 22.652 11.5761 24.9473 12.2543 26.5447L12.6209 27.8712L16.0594 19.0861H19.7797L14.2507 31.9445L10.535 31.9472ZM22.5139 31.9562H19.0031L21.1982 19.0726H24.7108L22.5139 31.9562ZM28.6234 32.1495C27.0495 32.1332 25.5334 31.8217 24.7117 31.4614L25.2056 28.5782L25.658 28.7832C26.8111 29.2644 27.5579 29.4595 28.9638 29.4595C29.9724 29.4595 31.0533 29.0649 31.0632 28.2016C31.0695 27.6373 30.6108 27.2346 29.2437 26.6025C27.9109 25.9866 26.1465 24.9536 26.1682 23.1035C26.1872 20.5995 28.6324 18.8522 32.1025 18.8522C33.4624 18.8522 34.5523 19.1322 35.2476 19.3931L34.7735 22.186L34.4566 22.037C33.8101 21.777 32.9784 21.526 31.8289 21.544C30.4546 21.544 29.8171 22.1165 29.8171 22.652C29.8099 23.2552 30.5612 23.6525 31.7892 24.2502C33.8146 25.1695 34.751 26.2846 34.7383 27.7502C34.7112 30.423 32.3157 32.1495 28.6234 32.1495ZM43.8385 31.9616C43.8385 31.9616 43.518 30.4808 43.4114 30.0311C42.9003 30.0311 39.3173 30.0257 38.9146 30.0257C38.7782 30.3733 38.1769 31.9616 38.1769 31.9616H34.49L39.7029 20.1552C40.0731 19.3164 40.7007 19.0861 41.5422 19.0861H44.2548L47.0964 31.9607L43.8385 31.9616Z" fill="white"/>
</g>
</g>
<g id="Group_3">
<g id="Group_4">
<path id="Vector_2" d="M42.0263 23.6717L41.7897 22.561C41.6109 23.0459 41.303 23.8252 41.3228 23.7909C41.3228 23.7909 40.2131 26.6506 39.9241 27.3919H42.8398C42.699 26.7463 42.0263 23.6717 42.0263 23.6717Z" fill="white"/>
</g>
</g>
</g>
</g>
</g>
</g>
</g>
</g>
<g id="&#208;&#147;&#208;&#187;&#208;&#176;&#208;&#178;&#208;&#189;&#208;&#176;&#209;&#143;_2">
<rect width="1600" height="8478" transform="translate(-1124 -7951)" fill="white"/>
<g id="&#208;&#164;&#209;&#131;&#209;&#130;&#208;&#181;&#209;&#128;_3" clip-path="url(#clip1_0_1)">
<rect width="1600" height="625" transform="translate(-1124 -101)" fill="white"/>
<g id="&#208;&#164;&#209;&#131;&#209;&#130;&#208;&#181;&#209;&#128;_4">
<rect id="Rectangle 27_2" x="-1123" y="-101" width="1599" height="628" fill="url(#paint1_linear_0_1)"/>
<g id="Group 40_2">
<g id="Group 42_2">
<g id="symbols 1_2">
<g id="Group_5">
<g id="Group_6">
<path id="Vector_3" d="M49.6871 8.97461H1.31292C0.586933 8.97461 0 9.56245 0 10.2875V40.7133C0 41.4384 0.586933 42.0262 1.31292 42.0262H49.6871C50.4131 42.0262 51 41.4384 51 40.7133V10.2875C51 9.56245 50.4131 8.97461 49.6871 8.97461ZM3.94871 18.9624H9.39184C10.126 18.9904 10.7174 19.2243 10.9215 20.009L12.1053 25.7022C10.9422 22.7242 8.13941 20.2464 3.90356 19.2207L3.94871 18.9624ZM10.535 31.9472L7.39085 21.2054C9.65099 22.652 11.5761 24.9473 12.2543 26.5447L12.6209 27.8712L16.0594 19.0861H19.7797L14.2507 31.9445L10.535 31.9472ZM22.5139 31.9562H19.0031L21.1982 19.0726H24.7108L22.5139 31.9562ZM28.6234 32.1495C27.0495 32.1332 25.5334 31.8217 24.7117 31.4614L25.2056 28.5782L25.658 28.7832C26.8111 29.2644 27.5579 29.4595 28.9638 29.4595C29.9724 29.4595 31.0533 29.0649 31.0632 28.2016C31.0695 27.6373 30.6108 27.2346 29.2437 26.6025C27.9109 25.9866 26.1465 24.9536 26.1682 23.1035C26.1872 20.5995 28.6324 18.8522 32.1025 18.8522C33.4624 18.8522 34.5523 19.1322 35.2476 19.3931L34.7735 22.186L34.4566 22.037C33.8101 21.777 32.9784 21.526 31.8289 21.544C30.4546 21.544 29.8171 22.1165 29.8171 22.652C29.8099 23.2552 30.5612 23.6525 31.7892 24.2502C33.8146 25.1695 34.751 26.2846 34.7383 27.7502C34.7112 30.423 32.3157 32.1495 28.6234 32.1495ZM43.8385 31.9616C43.8385 31.9616 43.518 30.4808 43.4114 30.0311C42.9003 30.0311 39.3173 30.0257 38.9146 30.0257C38.7782 30.3733 38.1769 31.9616 38.1769 31.9616H34.49L39.7029 20.1552C40.0731 19.3164 40.7007 19.0861 41.5422 19.0861H44.2548L47.0964 31.9607L43.8385 31.9616Z" fill="white"/>
</g>
</g>
<g id="Group_7">
<g id="Group_8">
<path id="Vector_4" d="M42.0263 23.6717L41.7897 22.561C41.6109 23.0459 41.303 23.8252 41.3228 23.7909C41.3228 23.7909 40.2131 26.6506 39.9241 27.3919H42.8398C42.699 26.7463 42.0263 23.6717 42.0263 23.6717Z" fill="white"/>
</g>
</g>
</g>
</g>
</g>
</g>
</g>
</g>
<defs>
<linearGradient id="paint0_linear_0_1" x1="-768" y1="169.317" x2="-1071.76" y2="-182.83" gradientUnits="userSpaceOnUse">
<stop stop-color="#EF780A"/>
<stop offset="0.991546" stop-color="#FFA722"/>
</linearGradient>
<linearGradient id="paint1_linear_0_1" x1="-768" y1="169.317" x2="-1071.76" y2="-182.83" gradientUnits="userSpaceOnUse">
<stop stop-color="#EF780A"/>
<stop offset="0.991546" stop-color="#FFA722"/>
</linearGradient>
<clipPath id="clip0_0_1">
<rect width="1600" height="625" fill="white" transform="translate(-1124 -101)"/>
</clipPath>
<clipPath id="clip1_0_1">
<rect width="1600" height="625" fill="white" transform="translate(-1124 -101)"/>
</clipPath>
</defs>
</svg>
