<svg width="20" height="20" viewBox="0 0 20 20" fill="none" xmlns="http://www.w3.org/2000/svg">
<g id="whatsapp (1) 1" clip-path="url(#clip0_23_27)">
<path id="Vector" d="M17.0282 2.90436C15.1494 1.03256 12.65 0.00106812 9.98993 0C7.33582 0 4.83246 1.03058 2.94128 2.90192C1.04675 4.77646 0.00244141 7.26761 0 9.90738V9.91043V9.91226C0.000305176 11.51 0.420074 13.1218 1.21689 14.593L0.0273132 20L5.49652 18.756C6.88171 19.454 8.42728 19.8221 9.98611 19.8227H9.99008C12.6437 19.8227 15.1471 18.792 17.0386 16.9205C18.9348 15.0444 19.9796 12.5565 19.9808 9.91501C19.9815 7.29218 18.9331 4.8024 17.0282 2.90436ZM9.98993 18.2617H9.98642C8.58673 18.2611 7.19986 17.9097 5.97595 17.2452L5.71732 17.1048L2.08054 17.932L2.87048 14.3419L2.7182 14.0793C1.96106 12.7736 1.56097 11.3322 1.56097 9.91058C1.56387 5.30899 5.3447 1.56097 9.98962 1.56097C12.2336 1.56189 14.342 2.43179 15.9265 4.01016C17.5349 5.61295 18.4204 7.70981 18.4196 9.91455C18.4178 14.5172 14.6362 18.2617 9.98993 18.2617Z" fill="white"/>
<path id="Vector_2" d="M7.27158 5.54143H6.83365C6.68121 5.54143 6.43372 5.5985 6.22437 5.82631C6.01486 6.05428 5.4245 6.60527 5.4245 7.72588C5.4245 8.84648 6.24344 9.92925 6.35757 10.0814C6.47186 10.2334 7.93839 12.6064 10.2611 13.5193C12.1915 14.278 12.5844 14.1271 13.0032 14.0891C13.4222 14.0513 14.3553 13.5383 14.5457 13.0065C14.7362 12.4747 14.7362 12.0188 14.6791 11.9236C14.6219 11.8287 14.4695 11.7717 14.241 11.6579C14.0125 11.5439 12.8925 10.9836 12.683 10.9075C12.4735 10.8317 12.3212 10.7937 12.1687 11.0218C12.0163 11.2494 11.5675 11.7762 11.4342 11.9281C11.301 12.0803 11.1676 12.0994 10.939 11.9854C10.7104 11.8711 9.982 11.6263 9.10904 10.8506C8.42957 10.2468 7.95807 9.47682 7.82471 9.24886C7.6915 9.02104 7.81052 8.89775 7.92511 8.78407C8.0278 8.68214 8.1665 8.54268 8.28079 8.40978C8.39493 8.27672 8.42743 8.18181 8.50372 8.02983C8.57986 7.87785 8.54172 7.7448 8.48465 7.63097C8.42743 7.51698 7.98889 6.39073 7.78564 5.94029H7.7858C7.61459 5.56096 7.43439 5.54814 7.27158 5.54143Z" fill="white"/>
</g>
<defs>
<clipPath id="clip0_23_27">
<rect width="20" height="20" fill="white"/>
</clipPath>
</defs>
</svg>
